<svg width="120" height="110" viewBox="0 0 120 110" fill="none" xmlns="http://www.w3.org/2000/svg">
    <path fill-rule="evenodd" clip-rule="evenodd" d="M4.83969 0H11.2926L11.6152 0.0656261C20.56 0.242084 28.3756 6.25642 30.974 14.9627L32.2646 19.4909H99.5685C105.512 19.5185 111.155 22.149 115.055 26.7098C118.945 31.2995 120.666 37.3894 119.766 43.3788L115.894 70.548C114.605 80.9622 105.953 88.8088 95.6322 88.9233H57.689C48.6246 88.8891 40.642 82.8469 38.0077 74.0262L21.6818 18.0472C20.4316 13.2445 16.5185 9.91005 11.2926 9.84391H4.83969C2.1668 9.84391 0 7.64028 0 4.92196C0 2.20363 2.1668 0 4.83969 0ZM47.2999 70.8762C48.6697 75.5487 52.8947 78.7514 57.689 78.7513H95.6322C100.973 78.6924 105.496 74.7299 106.344 69.3668L110.216 42.1319C110.743 38.9618 109.883 35.7155 107.862 33.2434C105.84 30.7713 102.859 29.3199 99.6975 29.2692H35.1684L47.2999 70.8762Z" fill="black"/>
    <path d="M56.2049 96.7985C52.641 96.7985 49.752 99.7366 49.752 103.361C49.752 106.985 52.641 109.924 56.2049 109.924C59.7687 109.924 62.6578 106.985 62.6578 103.361C62.6578 99.7366 59.7687 96.7985 56.2049 96.7985Z" fill="black"/>
    <path d="M94.9224 96.7985C91.3585 96.7985 88.4694 99.7366 88.4694 103.361C88.4694 106.985 91.3585 109.924 94.9224 109.924C98.4862 109.924 101.375 106.985 101.375 103.361C101.375 99.7366 98.4862 96.7985 94.9224 96.7985Z" fill="black"/>
</svg>
