<svg width="61" height="60" viewBox="0 0 61 60" fill="none" xmlns="http://www.w3.org/2000/svg">
<path d="M30.4624 0H30.4627C46.7951 0 60.0352 13.2401 60.0352 29.5725C60.0352 45.905 46.7952 59.1451 30.4627 59.1451C25.717 59.1451 21.2324 58.0272 17.2579 56.0405L17.429 56.1179L0 60L3.88207 42.5684C1.98433 38.7748 0.873515 34.3034 0.873515 29.5726C0.873515 13.2467 14.103 0.010664 30.4264 5.85615e-05H30.4274L30.4624 0ZM30.4624 53.7682C43.8253 53.7682 54.6581 42.9354 54.6581 29.5725C54.6581 16.2097 43.8253 5.37685 30.4624 5.37685H30.4275C17.0727 5.38757 6.25054 16.2162 6.25054 29.5725C6.25054 33.735 7.30171 37.6519 9.15292 41.0724L9.08964 40.9445L9.55739 41.821L7.08673 52.9133L18.1791 50.4427L19.0582 50.9132C22.3572 52.7073 26.282 53.7639 30.4531 53.7682H30.4544H30.4624ZM34.7289 47.644C28.6622 47.3527 23.2947 44.5838 19.5769 40.3349L19.5555 40.31C12.0898 32.7664 11.7081 25.8975 12.7001 21.4616C13.4035 18.3467 14.8674 15.6447 16.888 13.466L16.8779 13.477L18.7785 11.5762L29.7392 22.5369L28.7392 24.5398C28.4125 25.1691 28.221 25.9138 28.221 26.7031C28.221 28.0357 28.7669 29.2408 29.6471 30.1069L29.672 30.1317C30.5401 31.0109 31.7453 31.5554 33.0776 31.5554C33.8632 31.5554 34.6046 31.3661 35.2586 31.0306L35.2316 31.0432L35.7129 30.8012L37.8636 30.6481L48.3215 41.1061L46.4207 43.0068C43.3486 45.8334 39.2489 47.5851 34.7408 47.6442L34.7289 47.6443V47.644ZM19.1361 19.5232C18.6009 20.4832 18.1775 21.5959 17.9246 22.7718L17.9102 22.8515C16.9989 27.3304 18.8404 31.9329 23.3865 36.5274C26.1664 39.7903 30.1685 41.9401 34.6762 42.2642L34.7289 42.2672C36.8056 42.2469 38.7485 41.6931 40.433 40.7366L40.3746 40.7672L36.0731 36.4657C35.1768 36.7528 34.1458 36.9188 33.0761 36.92H33.0756C27.4311 36.8878 22.8678 32.3047 22.8678 26.6558C22.8678 25.6011 23.0269 24.5835 23.3224 23.6257L23.3031 23.6983L19.1361 19.5232Z" fill="black"/>
</svg>
